{
	"asset":{
		"generator":"Khronos glTF Blender I/O v5.1.20",
		"version":"2.0"
	},
	"scene":0,
	"scenes":[
		{
			"name":"Scene",
			"nodes":[
				2
			]
		}
	],
	"nodes":[
		{
			"mesh":0,
			"name":"PlantMonstera001"
		},
		{
			"mesh":1,
			"name":"PlantMonsteraVase001"
		},
		{
			"children":[
				0,
				1
			],
			"name":"PlantMonstera001_Empty"
		}
	],
	"materials":[
		{
			"doubleSided":true,
			"name":"PlantMonstera001_4K",
			"normalTexture":{
				"index":0
			},
			"pbrMetallicRoughness":{
				"baseColorTexture":{
					"index":1
				},
				"metallicRoughnessTexture":{
					"index":2
				}
			}
		},
		{
			"doubleSided":true,
			"name":"PlantMonsteraVase001_4K",
			"normalTexture":{
				"index":3
			},
			"pbrMetallicRoughness":{
				"baseColorTexture":{
					"index":4
				},
				"metallicRoughnessTexture":{
					"index":5
				}
			}
		}
	],
	"meshes":[
		{
			"name":"Plane.007",
			"primitives":[
				{
					"attributes":{
						"POSITION":0,
						"NORMAL":1,
						"TEXCOORD_0":2
					},
					"indices":3,
					"material":0
				}
			]
		},
		{
			"name":"Untitled.000",
			"primitives":[
				{
					"attributes":{
						"POSITION":4,
						"NORMAL":5,
						"TEXCOORD_0":6
					},
					"indices":7,
					"material":1
				}
			]
		}
	],
	"textures":[
		{
			"sampler":0,
			"source":0
		},
		{
			"sampler":0,
			"source":1
		},
		{
			"sampler":0,
			"source":2
		},
		{
			"sampler":0,
			"source":3
		},
		{
			"sampler":0,
			"source":4
		},
		{
			"sampler":0,
			"source":5
		}
	],
	"images":[
		{
			"mimeType":"image/jpeg",
			"name":"PlantMonstera001_NRM_4K_METALNESS",
			"uri":"PlantMonstera001_NRM_4K_METALNESS.jpg"
		},
		{
			"mimeType":"image/jpeg",
			"name":"PlantMonstera001_SSS_4K_METALNESS",
			"uri":"PlantMonstera001_SSS_4K_METALNESS.jpg"
		},
		{
			"mimeType":"image/png",
			"name":"PlantMonstera001_METALNESS_4K_METALNESS-PlantMonstera001_ROUGHNESS_4K_METALNESS",
			"uri":"PlantMonstera001_METALNESS_4K_METALNESS-PlantMonstera001_ROUGHNESS_4K_METALNESS.png"
		},
		{
			"mimeType":"image/png",
			"name":"PlantMonsteraVase001_NRM_4K_METALNESS",
			"uri":"PlantMonsteraVase001_NRM_4K_METALNESS.png"
		},
		{
			"mimeType":"image/jpeg",
			"name":"PlantMonsteraVase001_COL_4K_METALNESS",
			"uri":"PlantMonsteraVase001_COL_4K_METALNESS.jpg"
		},
		{
			"mimeType":"image/png",
			"name":"PlantMonsteraVase001_METALNESS_4K_METALNESS-PlantMonsteraVase001_ROUGHNESS_4K_METALNESS",
			"uri":"PlantMonsteraVase001_METALNESS_4K_METALNESS-PlantMonsteraVase001_ROUGHNESS_4K_METALNESS.png"
		}
	],
	"accessors":[
		{
			"bufferView":0,
			"componentType":5126,
			"count":74694,
			"max":[
				0.2257675677537918,
				0.5650392770767212,
				0.22345364093780518
			],
			"min":[
				-0.21638040244579315,
				0.13294002413749695,
				-0.24734875559806824
			],
			"type":"VEC3"
		},
		{
			"bufferView":1,
			"componentType":5126,
			"count":74694,
			"type":"VEC3"
		},
		{
			"bufferView":2,
			"componentType":5126,
			"count":74694,
			"type":"VEC2"
		},
		{
			"bufferView":3,
			"componentType":5125,
			"count":409968,
			"type":"SCALAR"
		},
		{
			"bufferView":4,
			"componentType":5126,
			"count":134370,
			"max":[
				0.08088774234056473,
				0.1516183465719223,
				0.08088783919811249
			],
			"min":[
				-0.08088810741901398,
				-3.5714098345351886e-08,
				-0.08088801801204681
			],
			"type":"VEC3"
		},
		{
			"bufferView":5,
			"componentType":5126,
			"count":134370,
			"type":"VEC3"
		},
		{
			"bufferView":6,
			"componentType":5126,
			"count":134370,
			"type":"VEC2"
		},
		{
			"bufferView":7,
			"componentType":5125,
			"count":699648,
			"type":"SCALAR"
		}
	],
	"bufferViews":[
		{
			"buffer":0,
			"byteLength":896328,
			"byteOffset":0,
			"target":34962
		},
		{
			"buffer":0,
			"byteLength":896328,
			"byteOffset":896328,
			"target":34962
		},
		{
			"buffer":0,
			"byteLength":597552,
			"byteOffset":1792656,
			"target":34962
		},
		{
			"buffer":0,
			"byteLength":1639872,
			"byteOffset":2390208,
			"target":34963
		},
		{
			"buffer":0,
			"byteLength":1612440,
			"byteOffset":4030080,
			"target":34962
		},
		{
			"buffer":0,
			"byteLength":1612440,
			"byteOffset":5642520,
			"target":34962
		},
		{
			"buffer":0,
			"byteLength":1074960,
			"byteOffset":7254960,
			"target":34962
		},
		{
			"buffer":0,
			"byteLength":2798592,
			"byteOffset":8329920,
			"target":34963
		}
	],
	"samplers":[
		{
			"magFilter":9729,
			"minFilter":9987
		}
	],
	"buffers":[
		{
			"byteLength":11128512,
			"uri":"PlantMonstera002_Blender_Cycles.bin"
		}
	]
}
